<svg version="1.2" xmlns="http://www.w3.org/2000/svg" viewBox="0 0 500 500" width="500" height="500"><style>.a{fill:#fff}.b{fill:#ed1e36}</style><path class="a" d="m99.2 284.9l-23.3 0.2 7.5-76.3h-6l1.7-17.4h29.5zm12.9-64.3h58.4l-6.5 64.4-58.3-0.1zm30.5 46.8l2.8-29.3h-11.6l-3 29.3zm33.4-47h23.8l-1.8 17.7h-24.1z"/><path class="b" d="m223.2 285.1h-23.2l7.6-76.3h-5.9l1.7-17.4h29.4l-5.3 52.9 14-23.7 23.5-0.1-14.3 23.5h12l-6.5 64.6h-23.5l4.8-46.9h-12zm65.1-0.1l-23.4 0.1 6.5-64.5h23.4zm12.7-64.5h58.6l-1.8 17.8-35.1-0.1-0.7 5.9h35.2l-4.1 41-58.4-0.1 1.7-17.4h34.9l0.6-5.9-35-0.1zm65 0h58.6l-1.9 17.7h-35.1l-0.7 5.9h35.2l-4.1 41-58.4-0.1 1.7-17.4h35l0.5-5.9-34.9-0.1z"/></svg>